<svg width="40" height="20" viewBox="0 0 40 20" fill="none" xmlns="http://www.w3.org/2000/svg">
<path d="M38.8883 12.7778C38.8883 12.8851 38.8956 12.9606 38.9102 13.0045C38.9297 13.0435 38.976 13.0899 39.0492 13.1435L40.0001 13.9408V13.97H36.8914V12.4194C36.7743 12.7119 36.6329 12.9655 36.4671 13.1801C36.3062 13.3898 36.1258 13.5629 35.9259 13.6994C35.7308 13.8311 35.5187 13.9286 35.2895 13.992C35.0652 14.0603 34.8335 14.0944 34.5946 14.0944C34.1606 14.0944 33.7632 14.0042 33.4023 13.8238C33.0415 13.6384 32.7294 13.3751 32.4661 13.0338C32.2027 12.6876 31.9979 12.2706 31.8516 11.783C31.7053 11.2954 31.6322 10.7468 31.6322 10.1372C31.6322 9.51791 31.7151 8.95957 31.8809 8.46218C32.0467 7.95991 32.2734 7.53323 32.5612 7.18213C32.8537 6.82615 33.1951 6.55308 33.5852 6.3629C33.9753 6.17272 34.3971 6.07763 34.8506 6.07763C35.1188 6.07763 35.3602 6.11176 35.5748 6.18003C35.7893 6.2483 35.9795 6.34339 36.1453 6.4653C36.3111 6.58233 36.4549 6.72375 36.5768 6.88954C36.6988 7.05047 36.8036 7.22358 36.8914 7.40888V3.9052C36.8914 3.8028 36.8816 3.72965 36.8621 3.68577C36.8475 3.64188 36.8036 3.59311 36.7305 3.53947L35.8015 2.85922V2.82996L38.8883 2.46423V12.7778ZM35.5455 13.1289C35.7844 13.1289 36.0136 13.0606 36.2331 12.9241C36.4574 12.7826 36.6768 12.5656 36.8914 12.2731V7.5698C36.7256 7.33573 36.533 7.15531 36.3135 7.02852C36.0941 6.90174 35.8527 6.83834 35.5894 6.83834C35.3456 6.83834 35.1115 6.89686 34.8872 7.01389C34.6677 7.13093 34.4751 7.31623 34.3093 7.5698C34.1435 7.82337 34.0119 8.15009 33.9143 8.54995C33.8168 8.94981 33.7681 9.43014 33.7681 9.99092C33.7681 10.5566 33.8144 11.0369 33.907 11.4319C34.0046 11.8269 34.1338 12.1512 34.2947 12.4047C34.4605 12.6583 34.6507 12.8436 34.8652 12.9606C35.0798 13.0728 35.3066 13.1289 35.5455 13.1289Z" fill="#767676"/>
<path d="M30.4943 12.9094C30.4943 12.9533 30.4943 12.9899 30.4943 13.0192C30.4992 13.0484 30.5065 13.0752 30.5163 13.0996C30.5309 13.124 30.5504 13.1484 30.5748 13.1728C30.5992 13.1971 30.6309 13.224 30.6699 13.2532L31.6061 13.9408V13.97H27.4003V13.9408L28.3365 13.2532C28.4097 13.1996 28.4536 13.1508 28.4682 13.1069C28.4877 13.063 28.4975 12.9972 28.4975 12.9094V3.9052C28.4975 3.8028 28.4877 3.72965 28.4682 3.68577C28.4536 3.64188 28.4097 3.59311 28.3365 3.53947L27.4003 2.85922V2.82996L30.4943 2.46423V12.9094Z" fill="#767676"/>
<path d="M24.6239 12.7778C24.6239 12.8656 24.6336 12.9363 24.6531 12.9899C24.6775 13.0387 24.7433 13.0899 24.8506 13.1435L26.4818 13.9408V13.9701H21.5371V13.9408L22.4734 13.2532C22.5416 13.1996 22.5831 13.1508 22.5977 13.1069C22.6172 13.063 22.627 12.9972 22.627 12.9094V7.39426C22.627 7.29185 22.6172 7.21871 22.5977 7.17482C22.5831 7.13093 22.5416 7.08217 22.4734 7.02853L21.5371 6.23856V6.20198H24.6239V8.44024C24.6824 8.16229 24.775 7.88433 24.9018 7.60638C25.0286 7.32355 25.1871 7.06998 25.3773 6.84567C25.5674 6.61648 25.7917 6.43117 26.0502 6.28976C26.3086 6.14834 26.5988 6.07764 26.9206 6.07764C27.1108 6.07764 27.2815 6.10689 27.4326 6.16541C27.5887 6.22393 27.7252 6.30439 27.8423 6.40679L27.0011 8.8206H26.9718L25.9697 7.18945C25.9405 7.15044 25.9088 7.1285 25.8746 7.12362C25.8405 7.11874 25.8039 7.12362 25.7649 7.13825C25.6235 7.20164 25.4967 7.28698 25.3846 7.39426C25.2773 7.49666 25.1798 7.6137 25.092 7.74536C25.0042 7.87702 24.9213 8.01843 24.8433 8.1696C24.7701 8.31589 24.697 8.46462 24.6239 8.61579V12.7778Z" fill="#767676"/>
<path d="M17.3857 6.33365C17.1468 6.33365 16.9298 6.39216 16.7347 6.5092C16.5445 6.62623 16.3812 6.8286 16.2446 7.1163C16.113 7.39913 16.0106 7.78193 15.9374 8.26469C15.8643 8.74258 15.8277 9.34481 15.8277 10.0714C15.8277 10.798 15.8643 11.4026 15.9374 11.8854C16.0106 12.3682 16.113 12.7558 16.2446 13.0484C16.3812 13.3361 16.5445 13.5409 16.7347 13.6628C16.9298 13.7847 17.1468 13.8457 17.3857 13.8457C17.6246 13.8457 17.8392 13.7872 18.0294 13.6702C18.2244 13.5482 18.3902 13.3434 18.5268 13.0557C18.6633 12.768 18.7682 12.3828 18.8413 11.9C18.9144 11.4173 18.951 10.8126 18.951 10.086C18.951 9.36431 18.9144 8.76208 18.8413 8.27932C18.7682 7.79656 18.6633 7.41133 18.5268 7.12362C18.3902 6.83591 18.2244 6.63354 18.0294 6.51651C17.8392 6.3946 17.6246 6.33365 17.3857 6.33365ZM17.3857 14.0944C16.8103 14.0944 16.2885 14.0091 15.8204 13.8384C15.3523 13.6628 14.95 13.4044 14.6135 13.063C14.2819 12.7217 14.0234 12.3023 13.8381 11.8049C13.6577 11.3027 13.5675 10.7248 13.5675 10.0714C13.5675 9.42283 13.6577 8.84986 13.8381 8.35247C14.0234 7.85508 14.2819 7.43815 14.6135 7.10168C14.95 6.76521 15.3523 6.51163 15.8204 6.34096C16.2885 6.16541 16.8103 6.07764 17.3857 6.07764C17.9611 6.07764 18.4829 6.16297 18.951 6.33365C19.424 6.50432 19.8263 6.75789 20.1579 7.09436C20.4944 7.43083 20.7528 7.8502 20.9333 8.35247C21.1137 8.84986 21.2039 9.42771 21.2039 10.086C21.2039 10.7346 21.1137 11.31 20.9333 11.8123C20.7528 12.3096 20.4944 12.729 20.1579 13.0704C19.8263 13.4068 19.424 13.6628 18.951 13.8384C18.4829 14.0091 17.9611 14.0944 17.3857 14.0944Z" fill="#767676"/>
<path d="M13.0367 7.66491C12.9929 7.7283 12.9563 7.78194 12.927 7.82583C12.9026 7.86972 12.8783 7.91117 12.8539 7.95018C12.8344 7.98919 12.8149 8.03308 12.7954 8.08184C12.7807 8.12573 12.7612 8.1818 12.7368 8.25007L10.7253 13.9701H9.50381L7.85072 9.35457L6.19031 13.9701H4.96878L2.70127 7.61371C2.67688 7.54056 2.65494 7.47961 2.63544 7.43084C2.61593 7.3772 2.59642 7.32844 2.57692 7.28455C2.55741 7.23579 2.53547 7.18946 2.51109 7.14557C2.49158 7.10169 2.46476 7.05292 2.43063 6.99928L1.94055 6.23857V6.202H5.45886V6.23857L4.79323 7.02854C4.73959 7.09193 4.71033 7.14801 4.70546 7.19678C4.70058 7.24554 4.71521 7.32112 4.74934 7.42353L6.46095 12.3535L7.69711 8.93033L7.2363 7.61371C7.18753 7.47229 7.14608 7.36014 7.11195 7.27724C7.07781 7.19434 7.02905 7.10169 6.96566 6.99928L6.47558 6.23857V6.202H9.97926V6.23857L9.32826 7.02854C9.27462 7.09681 9.24049 7.15533 9.22586 7.20409C9.21123 7.24798 9.22342 7.32112 9.26243 7.42353L10.996 12.3389L12.437 8.2135C12.4857 8.09159 12.5052 7.99894 12.4955 7.93555C12.4857 7.86728 12.4443 7.78194 12.3711 7.67954L11.4495 6.23857V6.202H14.0388V6.23857L13.0367 7.66491Z" fill="#767676"/>
<path d="M0 12.6162C0 12.3871 0.0416558 12.1754 0.124967 11.981C0.208279 11.7796 0.319361 11.6095 0.458214 11.4707C0.604009 11.3249 0.770633 11.2138 0.958084 11.1374C1.15248 11.0541 1.36076 11.0125 1.58292 11.0125C1.80509 11.0125 2.01336 11.0541 2.20776 11.1374C2.40215 11.2138 2.56878 11.3249 2.70763 11.4707C2.85342 11.6095 2.96798 11.7796 3.05129 11.981C3.1346 12.1754 3.17626 12.3871 3.17626 12.6162C3.17626 12.8384 3.1346 13.0432 3.05129 13.2307C2.96798 13.4112 2.85342 13.5708 2.70763 13.7097C2.56878 13.8485 2.40215 13.9562 2.20776 14.0325C2.01336 14.1089 1.80509 14.1471 1.58292 14.1471C1.36076 14.1471 1.15248 14.1089 0.958084 14.0325C0.770633 13.9562 0.604009 13.8485 0.458214 13.7097C0.319361 13.5708 0.208279 13.4112 0.124967 13.2307C0.0416558 13.0432 0 12.8384 0 12.6162Z" fill="#767676"/>
</svg>
