<svg width="8774" height="1233" viewBox="0 0 8774 1233" fill="none" xmlns="http://www.w3.org/2000/svg">
<g clip-path="url(#clip0_2_19)">
<path d="M8682.73 715.442C8682.73 817.432 8679.71 946.62 8678.2 1075.81C8678.2 1096.96 8679.71 1102.25 8692.55 1115.09L8774.15 1190.64V1193.66H8314.06V1190.64L8392.63 1115.09C8406.23 1102.25 8407.74 1095.45 8407.74 1077.32C8407.74 1053.14 8412.27 831.786 8412.27 753.216C8412.27 604.386 8389.61 506.173 8288.37 506.173C8235.49 506.173 8196.2 535.637 8166.74 577.944V1075.81C8166.74 1096.96 8166.74 1102.25 8181.85 1115.09L8261.93 1190.64V1193.66H7803.35V1190.64L7884.19 1115.09C7898.54 1102.25 7898.54 1096.96 7898.54 1075.81V509.195C7898.54 488.042 7897.03 483.509 7884.19 468.399L7803.35 386.807V383.03H8166.74V556.791C8208.29 441.957 8294.41 370.187 8427.38 370.187C8591.32 370.187 8682.73 489.553 8682.73 715.442Z" fill="#767676"/>
<path d="M7320.6 401.161C7238.25 401.161 7187.63 469.91 7187.63 787.968C7187.63 1103.76 7238.25 1177.04 7320.6 1177.04C7402.19 1177.04 7452.81 1106.78 7452.81 789.479C7452.81 473.688 7402.19 401.161 7320.6 401.161ZM7320.6 1206.51C7061.47 1206.51 6889.97 1065.99 6889.97 787.968C6889.97 512.973 7061.47 370.187 7320.6 370.187C7578.97 370.187 7752.73 510.706 7752.73 789.479C7752.73 1064.48 7578.97 1206.51 7320.6 1206.51Z" fill="#767676"/>
<path d="M6613.47 293.127C6543.21 293.127 6482.77 245.532 6482.77 172.25C6482.77 93.6796 6543.21 44.5732 6613.47 44.5732C6687.5 44.5732 6746.43 93.6796 6746.43 172.25C6746.43 245.532 6687.5 293.127 6613.47 293.127ZM6389.09 383.029H6752.47V1075.81C6752.47 1096.96 6752.47 1102.25 6767.58 1115.09L6847.67 1190.64V1193.66H6389.09V1190.64L6469.92 1115.09C6484.28 1102.25 6484.28 1096.96 6484.28 1075.81V509.195C6484.28 488.042 6482.77 483.509 6469.92 468.399L6389.09 386.807V383.029Z" fill="#767676"/>
<path d="M6370.2 383.03V420.804H6168.49V962.485C6168.49 1036.52 6201.73 1078.83 6255.37 1078.83C6297.67 1078.83 6332.43 1050.88 6350.56 1018.39L6353.58 1019.9C6336.96 1112.07 6270.48 1206.51 6114.85 1206.51C5972.06 1206.51 5901.8 1129.45 5901.8 982.128V420.804H5811.9V383.03H5885.18C5911.62 383.03 5919.93 383.03 5936.55 364.898L6165.46 108.034H6168.49V383.03H6370.2Z" fill="#767676"/>
<path d="M5720.49 701.088C5720.49 716.953 5718.97 754.727 5718.97 760.016L5709.15 991.949C5706.13 1056.16 5720.49 1087.14 5752.97 1087.14C5774.88 1087.14 5789.23 1077.32 5799.06 1057.68H5802.83C5802.83 1072.79 5799.06 1096.96 5789.23 1116.6C5762.79 1171 5707.64 1206.51 5629.07 1206.51C5535.39 1206.51 5455.31 1151.36 5450.78 1047.85C5417.54 1143.05 5334.43 1206.51 5227.91 1206.51C5108.54 1206.51 5005.04 1126.42 5005.04 976.083C5005.04 813.655 5146.32 729.041 5280.04 729.041C5350.3 729.041 5409.23 741.884 5453.8 772.859L5456.82 597.587V589.276C5456.82 476.71 5422.83 401.161 5337.46 401.161C5304.97 401.161 5303.46 402.672 5293.64 420.804L5160.67 666.336H5157.65L5054.15 432.136C5163.69 392.851 5280.04 370.187 5385.05 370.187C5494.6 370.187 5579.97 389.829 5638.89 445.735C5691.02 494.841 5720.49 574.922 5720.49 701.088ZM5393.36 779.658C5307.99 779.658 5260.4 852.94 5260.4 948.131C5260.4 1038.03 5301.19 1087.14 5357.1 1087.14C5393.36 1087.14 5428.87 1062.96 5450.78 1029.72V1028.21L5453.8 789.479C5434.16 782.68 5414.51 779.658 5393.36 779.658Z" fill="#767676"/>
<path d="M4864.52 0V1070.52C4864.52 1092.43 4864.52 1096.96 4878.88 1109.8L4960.47 1190.64V1193.66H4597.08V1039.54C4547.98 1152.87 4461.09 1206.51 4356.84 1206.51C4170.23 1206.51 4034.25 1059.19 4034.25 790.99C4034.25 538.659 4181.57 370.187 4386.3 370.187C4492.83 370.187 4561.57 420.804 4597.08 500.885V162.429C4597.08 141.275 4595.57 134.476 4581.22 121.633L4502.65 46.0845V43.0625L4864.52 0ZM4483 1084.12C4523.8 1084.12 4564.6 1064.48 4597.08 1021.41V515.995C4574.42 486.531 4535.13 465.377 4490.56 465.377C4402.17 465.377 4317.55 545.458 4317.55 782.68C4317.55 1005.55 4390.84 1084.12 4483 1084.12Z" fill="#767676"/>
<path d="M3900.53 715.442C3900.53 817.432 3897.5 946.62 3895.99 1075.81C3895.99 1096.96 3897.5 1102.25 3910.35 1115.09L3991.94 1190.64V1193.66H3531.85V1190.64L3610.42 1115.09C3624.02 1102.25 3625.53 1095.45 3625.53 1077.32C3625.53 1053.14 3630.06 831.786 3630.06 753.216C3630.06 604.386 3607.4 506.173 3506.16 506.173C3453.28 506.173 3414 535.637 3384.53 577.944V1075.81C3384.53 1096.96 3384.53 1102.25 3399.64 1115.09L3479.72 1190.64V1193.66H3021.15V1190.64L3101.98 1115.09C3116.34 1102.25 3116.34 1096.96 3116.34 1075.81V509.195C3116.34 488.042 3114.82 483.509 3101.98 468.399L3021.15 386.807V383.03H3384.53V556.791C3426.08 441.957 3512.21 370.187 3645.17 370.187C3809.11 370.187 3900.53 489.553 3900.53 715.442Z" fill="#767676"/>
<path d="M2876.85 383.03V1069.01C2876.85 1090.16 2876.85 1096.96 2891.96 1109.8L2973.55 1190.64V1193.66H2608.65V1018.39C2567.1 1129.45 2478.71 1206.51 2357.83 1206.51C2196.16 1206.51 2109.28 1088.65 2109.28 866.539C2109.28 758.505 2110.79 640.649 2112.3 507.684C2112.3 486.531 2110.79 481.242 2097.95 468.399L2017.11 386.807V383.03H2378.98C2378.98 388.318 2377.47 807.611 2377.47 828.765C2377.47 974.573 2398.63 1072.79 2490.8 1072.79C2542.92 1072.79 2580.7 1039.54 2608.65 998.748V509.195C2608.65 488.042 2606.38 483.509 2593.54 468.399L2513.46 386.807V383.03H2876.85Z" fill="#767676"/>
<path d="M1551.73 401.161C1469.38 401.161 1418.77 469.91 1418.77 787.968C1418.77 1103.76 1469.38 1177.04 1551.73 1177.04C1633.32 1177.04 1683.94 1106.78 1683.94 789.479C1683.94 473.688 1633.32 401.161 1551.73 401.161ZM1551.73 1206.51C1292.6 1206.51 1121.11 1065.99 1121.11 787.968C1121.11 512.973 1292.6 370.187 1551.73 370.187C1810.11 370.187 1983.87 510.706 1983.87 789.479C1983.87 1064.48 1810.11 1206.51 1551.73 1206.51Z" fill="#767676"/>
<path d="M1136.22 420.804H936.768V1065.99C936.768 1087.14 938.279 1092.43 961.699 1106.78L1082.58 1190.64V1193.66H574.892V1190.64L654.973 1115.09C668.572 1102.25 670.083 1096.96 670.083 1075.81V420.804H583.202V383.03H670.083C670.083 123.144 787.938 26.4419 985.875 26.4419C1079.55 26.4419 1161.15 39.2851 1244.25 62.7051L1141.5 308.237H1138.48L1023.65 77.0592C1013.83 57.4167 1010.81 55.9056 995.696 55.9056C956.411 55.9056 936.768 93.6798 936.768 207.758V383.03H1136.22V420.804Z" fill="#767676"/>
<path d="M0 1011.53C0 885.154 99.1193 798.424 214.346 798.424C335.767 798.424 432.408 885.154 432.408 1011.53C432.408 1131.71 335.767 1214.73 214.346 1214.73C99.1193 1214.73 0 1131.71 0 1011.53Z" fill="#767676"/>
</g>
<defs>
<clipPath id="clip0_2_19">
<rect width="8774" height="1233" fill="white"/>
</clipPath>
</defs>
</svg>
